<mxfile host="app.diagrams.net" agent="Mozilla/5.0 (Windows NT 10.0; Win64; x64) AppleWebKit/537.36 (KHTML, like Gecko) Chrome/141.0.0.0 Safari/537.36" version="28.2.8">
  <diagram id="EPDTH6_Ev97q3v-gJc_v" name="Página-2">
    <mxGraphModel grid="1" page="1" gridSize="10" guides="1" tooltips="1" connect="1" arrows="1" fold="1" pageScale="1" pageWidth="827" pageHeight="1169" math="0" shadow="0">
      <root>
        <mxCell id="0" />
        <mxCell id="1" parent="0" />
        <mxCell id="XWwLvn9eJnD7L42uh3Ig-1" value="" style="whiteSpace=wrap;strokeWidth=2;" vertex="1" parent="1">
          <mxGeometry x="10" y="910" width="345" height="455" as="geometry" />
        </mxCell>
        <mxCell id="XWwLvn9eJnD7L42uh3Ig-2" value="" style="whiteSpace=wrap;strokeWidth=2;" vertex="1" parent="1">
          <mxGeometry x="402" y="573" width="520" height="606" as="geometry" />
        </mxCell>
        <mxCell id="XWwLvn9eJnD7L42uh3Ig-3" value="" style="whiteSpace=wrap;strokeWidth=2;" vertex="1" parent="1">
          <mxGeometry x="39" y="230" width="651" height="279" as="geometry" />
        </mxCell>
        <mxCell id="XWwLvn9eJnD7L42uh3Ig-4" value="Fase de Prospección" style="whiteSpace=wrap;strokeWidth=2;" vertex="1" parent="1">
          <mxGeometry x="200" y="20" width="556" height="128" as="geometry" />
        </mxCell>
        <mxCell id="XWwLvn9eJnD7L42uh3Ig-5" value="🎯 LEAD&#xa;Prospecto" style="whiteSpace=wrap;strokeWidth=2;" vertex="1" parent="1">
          <mxGeometry x="560" y="45" width="130" height="78" as="geometry" />
        </mxCell>
        <mxCell id="XWwLvn9eJnD7L42uh3Ig-6" value="🏢 ACCOUNT&#xa;Cuenta" style="whiteSpace=wrap;strokeWidth=2;" vertex="1" parent="1">
          <mxGeometry x="244" y="246" width="155" height="78" as="geometry" />
        </mxCell>
        <mxCell id="XWwLvn9eJnD7L42uh3Ig-7" value="👤 CONTACT&#xa;Contacto" style="whiteSpace=wrap;strokeWidth=2;" vertex="1" parent="1">
          <mxGeometry x="451" y="397" width="153" height="78" as="geometry" />
        </mxCell>
        <mxCell id="XWwLvn9eJnD7L42uh3Ig-8" value="💼 OPPORTUNITY&#xa;Oportunidad" style="whiteSpace=wrap;strokeWidth=2;" vertex="1" parent="1">
          <mxGeometry x="607" y="598" width="188" height="78" as="geometry" />
        </mxCell>
        <mxCell id="XWwLvn9eJnD7L42uh3Ig-9" value="📦 PRODUCT&#xa;Producto" style="whiteSpace=wrap;strokeWidth=2;" vertex="1" parent="1">
          <mxGeometry x="625" y="749" width="155" height="78" as="geometry" />
        </mxCell>
        <mxCell id="XWwLvn9eJnD7L42uh3Ig-10" value="💰 PRICEBOOK&#xa;Lista de Precios" style="whiteSpace=wrap;strokeWidth=2;" vertex="1" parent="1">
          <mxGeometry x="513" y="925" width="172" height="78" as="geometry" />
        </mxCell>
        <mxCell id="XWwLvn9eJnD7L42uh3Ig-11" value="📄 QUOTE&#xa;Cotización" style="whiteSpace=wrap;strokeWidth=2;" vertex="1" parent="1">
          <mxGeometry x="592" y="1076" width="137" height="78" as="geometry" />
        </mxCell>
        <mxCell id="XWwLvn9eJnD7L42uh3Ig-12" value="🔧 ASSET&#xa;Activo" style="whiteSpace=wrap;strokeWidth=2;" vertex="1" parent="1">
          <mxGeometry x="59" y="925" width="129" height="78" as="geometry" />
        </mxCell>
        <mxCell id="XWwLvn9eJnD7L42uh3Ig-13" value="🎫 CASE&#xa;Caso" style="whiteSpace=wrap;strokeWidth=2;" vertex="1" parent="1">
          <mxGeometry x="151" y="1076" width="122" height="78" as="geometry" />
        </mxCell>
        <mxCell id="XWwLvn9eJnD7L42uh3Ig-14" value="📚 ARTICLE&#xa;Artículo" style="whiteSpace=wrap;strokeWidth=2;" vertex="1" parent="1">
          <mxGeometry x="140" y="1252" width="144" height="78" as="geometry" />
        </mxCell>
        <mxCell id="XWwLvn9eJnD7L42uh3Ig-15" value="se convierte en" style="curved=1;startArrow=none;endArrow=block;exitX=0;exitY=0.68;entryX=0.5;entryY=0;rounded=0;" edge="1" parent="1" source="XWwLvn9eJnD7L42uh3Ig-5" target="XWwLvn9eJnD7L42uh3Ig-6">
          <mxGeometry relative="1" as="geometry">
            <Array as="points">
              <mxPoint x="322" y="148" />
            </Array>
          </mxGeometry>
        </mxCell>
        <mxCell id="XWwLvn9eJnD7L42uh3Ig-16" value="se convierte en" style="curved=1;startArrow=none;endArrow=block;exitX=0.27;exitY=1;entryX=0.66;entryY=0;rounded=0;" edge="1" parent="1" source="XWwLvn9eJnD7L42uh3Ig-5" target="XWwLvn9eJnD7L42uh3Ig-7">
          <mxGeometry relative="1" as="geometry">
            <Array as="points">
              <mxPoint x="575" y="148" />
              <mxPoint x="575" y="361" />
            </Array>
          </mxGeometry>
        </mxCell>
        <mxCell id="XWwLvn9eJnD7L42uh3Ig-17" value="se convierte en" style="curved=1;startArrow=none;endArrow=block;exitX=1;exitY=0.85;entryX=0.75;entryY=0;rounded=0;" edge="1" parent="1" source="XWwLvn9eJnD7L42uh3Ig-5" target="XWwLvn9eJnD7L42uh3Ig-8">
          <mxGeometry relative="1" as="geometry">
            <Array as="points">
              <mxPoint x="778" y="148" />
              <mxPoint x="778" y="573" />
            </Array>
          </mxGeometry>
        </mxCell>
        <mxCell id="XWwLvn9eJnD7L42uh3Ig-18" value="tiene" style="curved=1;startArrow=none;endArrow=block;exitX=0.9;exitY=1;entryX=0.21;entryY=0;rounded=0;" edge="1" parent="1" source="XWwLvn9eJnD7L42uh3Ig-6" target="XWwLvn9eJnD7L42uh3Ig-7">
          <mxGeometry relative="1" as="geometry">
            <Array as="points">
              <mxPoint x="443" y="361" />
            </Array>
          </mxGeometry>
        </mxCell>
        <mxCell id="XWwLvn9eJnD7L42uh3Ig-19" value="tiene" style="curved=1;startArrow=none;endArrow=block;exitX=1;exitY=0.72;entryX=0.37;entryY=0;rounded=0;" edge="1" parent="1" source="XWwLvn9eJnD7L42uh3Ig-6" target="XWwLvn9eJnD7L42uh3Ig-8">
          <mxGeometry relative="1" as="geometry">
            <Array as="points">
              <mxPoint x="660" y="361" />
              <mxPoint x="660" y="573" />
            </Array>
          </mxGeometry>
        </mxCell>
        <mxCell id="XWwLvn9eJnD7L42uh3Ig-20" value="tiene" style="curved=1;startArrow=none;endArrow=block;exitX=0.43;exitY=1;entryX=0.88;entryY=0;rounded=0;" edge="1" parent="1" source="XWwLvn9eJnD7L42uh3Ig-6" target="XWwLvn9eJnD7L42uh3Ig-13">
          <mxGeometry relative="1" as="geometry">
            <Array as="points">
              <mxPoint x="302" y="361" />
              <mxPoint x="302" y="1040" />
            </Array>
          </mxGeometry>
        </mxCell>
        <mxCell id="XWwLvn9eJnD7L42uh3Ig-21" value="posee" style="curved=1;startArrow=none;endArrow=block;exitX=0;exitY=0.88;entryX=0.5;entryY=0;rounded=0;" edge="1" parent="1" source="XWwLvn9eJnD7L42uh3Ig-6" target="XWwLvn9eJnD7L42uh3Ig-12">
          <mxGeometry relative="1" as="geometry">
            <Array as="points">
              <mxPoint x="123" y="361" />
            </Array>
          </mxGeometry>
        </mxCell>
        <mxCell id="XWwLvn9eJnD7L42uh3Ig-22" value="relacionado con" style="curved=1;startArrow=none;endArrow=block;exitX=0.5;exitY=1;entryX=0;entryY=0.06;rounded=0;" edge="1" parent="1" source="XWwLvn9eJnD7L42uh3Ig-7" target="XWwLvn9eJnD7L42uh3Ig-8">
          <mxGeometry relative="1" as="geometry">
            <Array as="points">
              <mxPoint x="527" y="573" />
            </Array>
          </mxGeometry>
        </mxCell>
        <mxCell id="XWwLvn9eJnD7L42uh3Ig-23" value="relacionado con" style="curved=1;startArrow=none;endArrow=block;exitX=0;exitY=0.71;entryX=0.55;entryY=0;rounded=0;" edge="1" parent="1" source="XWwLvn9eJnD7L42uh3Ig-7" target="XWwLvn9eJnD7L42uh3Ig-13">
          <mxGeometry relative="1" as="geometry">
            <Array as="points">
              <mxPoint x="222" y="500" />
              <mxPoint x="222" y="1040" />
            </Array>
          </mxGeometry>
        </mxCell>
        <mxCell id="XWwLvn9eJnD7L42uh3Ig-24" value="genera" style="curved=1;startArrow=none;endArrow=block;exitX=0.9;exitY=1;entryX=0.99;entryY=0.15;rounded=0;" edge="1" parent="1" source="XWwLvn9eJnD7L42uh3Ig-8" target="XWwLvn9eJnD7L42uh3Ig-11">
          <mxGeometry relative="1" as="geometry">
            <Array as="points">
              <mxPoint x="846" y="713" />
              <mxPoint x="846" y="1040" />
            </Array>
          </mxGeometry>
        </mxCell>
        <mxCell id="XWwLvn9eJnD7L42uh3Ig-25" value="incluye" style="curved=1;startArrow=none;endArrow=block;exitX=0.5;exitY=1;entryX=0.5;entryY=0;rounded=0;" edge="1" parent="1" source="XWwLvn9eJnD7L42uh3Ig-8" target="XWwLvn9eJnD7L42uh3Ig-9">
          <mxGeometry relative="1" as="geometry">
            <Array as="points">
              <mxPoint x="702" y="713" />
            </Array>
          </mxGeometry>
        </mxCell>
        <mxCell id="XWwLvn9eJnD7L42uh3Ig-26" value="se convierte en" style="curved=1;startArrow=none;endArrow=block;exitX=0;exitY=0.84;entryX=1;entryY=0.35;rounded=0;" edge="1" parent="1" source="XWwLvn9eJnD7L42uh3Ig-9" target="XWwLvn9eJnD7L42uh3Ig-12">
          <mxGeometry relative="1" as="geometry">
            <Array as="points">
              <mxPoint x="479" y="864" />
              <mxPoint x="479" y="900" />
            </Array>
          </mxGeometry>
        </mxCell>
        <mxCell id="XWwLvn9eJnD7L42uh3Ig-27" value="tiene precios en" style="curved=1;startArrow=none;endArrow=block;exitX=0.5;exitY=1;entryX=0.87;entryY=0;rounded=0;" edge="1" parent="1" source="XWwLvn9eJnD7L42uh3Ig-9" target="XWwLvn9eJnD7L42uh3Ig-10">
          <mxGeometry relative="1" as="geometry">
            <Array as="points">
              <mxPoint x="702" y="900" />
            </Array>
          </mxGeometry>
        </mxCell>
        <mxCell id="XWwLvn9eJnD7L42uh3Ig-28" value="usado en" style="curved=1;startArrow=none;endArrow=block;exitX=0.35;exitY=0;entryX=0.1;entryY=1;rounded=0;" edge="1" parent="1" source="XWwLvn9eJnD7L42uh3Ig-10" target="XWwLvn9eJnD7L42uh3Ig-8">
          <mxGeometry relative="1" as="geometry">
            <Array as="points">
              <mxPoint x="556" y="900" />
              <mxPoint x="556" y="713" />
            </Array>
          </mxGeometry>
        </mxCell>
        <mxCell id="XWwLvn9eJnD7L42uh3Ig-29" value="usado en" style="curved=1;startArrow=none;endArrow=block;exitX=0.5;exitY=1;entryX=0.27;entryY=0;rounded=0;" edge="1" parent="1" source="XWwLvn9eJnD7L42uh3Ig-10" target="XWwLvn9eJnD7L42uh3Ig-11">
          <mxGeometry relative="1" as="geometry">
            <Array as="points">
              <mxPoint x="599" y="1040" />
            </Array>
          </mxGeometry>
        </mxCell>
        <mxCell id="XWwLvn9eJnD7L42uh3Ig-30" value="genera" style="curved=1;startArrow=none;endArrow=block;exitX=0.5;exitY=1;entryX=0.13;entryY=0;rounded=0;" edge="1" parent="1" source="XWwLvn9eJnD7L42uh3Ig-12" target="XWwLvn9eJnD7L42uh3Ig-13">
          <mxGeometry relative="1" as="geometry">
            <Array as="points">
              <mxPoint x="123" y="1040" />
            </Array>
          </mxGeometry>
        </mxCell>
        <mxCell id="XWwLvn9eJnD7L42uh3Ig-31" value="usa para resolver" style="curved=1;startArrow=none;endArrow=block;exitX=0.5;exitY=1;entryX=0.5;entryY=0;rounded=0;" edge="1" parent="1" source="XWwLvn9eJnD7L42uh3Ig-13" target="XWwLvn9eJnD7L42uh3Ig-14">
          <mxGeometry relative="1" as="geometry">
            <Array as="points" />
          </mxGeometry>
        </mxCell>
        <mxCell id="XWwLvn9eJnD7L42uh3Ig-32" value="Fase Post-Venta" style="text;html=1;whiteSpace=wrap;strokeColor=none;fillColor=none;align=center;verticalAlign=middle;rounded=0;" vertex="1" parent="1">
          <mxGeometry x="30" y="1179" width="110" height="30" as="geometry" />
        </mxCell>
        <mxCell id="XWwLvn9eJnD7L42uh3Ig-33" value="Fase de Ventas" style="text;html=1;whiteSpace=wrap;strokeColor=none;fillColor=none;align=center;verticalAlign=middle;rounded=0;" vertex="1" parent="1">
          <mxGeometry x="430" y="640" width="100" height="30" as="geometry" />
        </mxCell>
        <mxCell id="XWwLvn9eJnD7L42uh3Ig-34" value="Fase de Cliente" style="text;html=1;whiteSpace=wrap;strokeColor=none;fillColor=none;align=center;verticalAlign=middle;rounded=0;" vertex="1" parent="1">
          <mxGeometry x="59" y="260" width="121" height="30" as="geometry" />
        </mxCell>
      </root>
    </mxGraphModel>
  </diagram>
</mxfile>
